<?xml version="1.0" encoding="utf-8"?>
<!-- Generator: Adobe Illustrator 16.0.0, SVG Export Plug-In . SVG Version: 6.00 Build 0)  -->
<!DOCTYPE svg PUBLIC "-//W3C//DTD SVG 1.1//EN" "http://www.w3.org/Graphics/SVG/1.1/DTD/svg11.dtd" [
	<!ENTITY ns_flows "http://ns.adobe.com/Flows/1.0/">
	<!ENTITY ns_extend "http://ns.adobe.com/Extensibility/1.0/">
	<!ENTITY ns_ai "http://ns.adobe.com/AdobeIllustrator/10.0/">
	<!ENTITY ns_graphs "http://ns.adobe.com/Graphs/1.0/">
]>
<svg version="1.1" id="Layer_1" xmlns:x="&ns_extend;" xmlns:i="&ns_ai;" xmlns:graph="&ns_graphs;"
	 xmlns="http://www.w3.org/2000/svg" xmlns:xlink="http://www.w3.org/1999/xlink" xmlns:a="http://ns.adobe.com/AdobeSVGViewerExtensions/3.0/"
	 x="0px" y="0px" width="300.023px" height="64.87px" viewBox="-57.512 -12.435 300.023 64.87"
	 enable-background="new -57.512 -12.435 300.023 64.87" xml:space="preserve">
<g>
	<path fill="#97A3AA" d="M13.705,11.807C11.18,8.489,7.516,6.351,3.383,5.79C2.682,5.699,1.968,5.648,1.263,5.648
		c-2.549,0-4.992,0.609-7.263,1.807C-6.387,7.66-6.766,7.881-7.128,8.114l-0.017,0.009l-0.014,0.012l-1.259,0.946l-0.398,0.297
		l0.3,0.398l3.249,4.273l0.301,0.391l0.394-0.297l0.972-0.739c0.181-0.111,0.373-0.223,0.571-0.328
		c1.343-0.71,2.792-1.069,4.301-1.069c0.417,0,0.837,0.03,1.254,0.084c2.449,0.334,4.62,1.599,6.118,3.567
		c1.499,1.962,2.141,4.394,1.809,6.844C9.83,27.07,5.89,30.514,1.288,30.514c-0.417,0-0.836-0.027-1.25-0.084
		c-1.919-0.262-3.683-1.102-5.094-2.432c-0.153-0.146-0.307-0.301-0.463-0.465l-12.231-16.077l-0.778-1.027l-0.003,0.047
		l-0.511-0.671l-0.151-0.183c-0.32-0.354-0.642-0.681-0.967-0.99c-2.476-2.336-5.574-3.814-8.958-4.276
		c-0.725-0.098-1.466-0.146-2.196-0.146c-8.093,0-15.018,6.052-16.107,14.076c-0.582,4.299,0.547,8.573,3.181,12.032
		c2.633,3.459,6.451,5.689,10.748,6.273c0.733,0.098,1.478,0.146,2.213,0.146c2.655,0,5.198-0.633,7.564-1.885
		c0.091-0.045,0.173-0.094,0.262-0.145l0.098-0.054l0.498-0.28l-0.346-0.451l-3.301-4.336l-0.244-0.318l-0.358,0.166
		c-1.333,0.626-2.746,0.943-4.199,0.943c-0.442,0-0.891-0.029-1.332-0.09c-5.413-0.736-9.22-5.739-8.486-11.151
		c0.663-4.888,4.881-8.573,9.813-8.573c0.444,0,0.895,0.031,1.339,0.091c2.057,0.28,3.944,1.182,5.456,2.605
		c0.167,0.16,0.334,0.328,0.496,0.505l9.613,12.633l0.776,1.02l0.006-0.051l3.131,4.118l0.146,0.178
		c0.308,0.345,0.616,0.66,0.93,0.955c2.38,2.242,5.353,3.664,8.598,4.104c0.689,0.093,1.4,0.144,2.113,0.144
		c7.765,0,14.408-5.813,15.456-13.511C17.31,19.228,16.229,15.125,13.705,11.807z"/>
	<g>
		<path fill="#66CCCA" d="M-12.902,33.371c-0.049-0.052-0.104-0.103-0.152-0.15l-6.202-8.149c-0.269-0.301-0.562-0.603-0.871-0.893
			c-2.307-2.173-5.185-3.552-8.328-3.98c-0.298-0.036-0.6-0.067-0.898-0.088h-0.46l2.287,2.992c0.049,0.048,0.104,0.105,0.152,0.155
			l6.202,8.145c0.27,0.301,0.562,0.606,0.872,0.896c2.306,2.173,5.185,3.549,8.326,3.974c0.303,0.038,0.603,0.069,0.901,0.092h0.458
			L-12.902,33.371z"/>
	</g>
	<path fill="#66CCCA" d="M128.027,32.433c-0.436-0.421-0.958-0.638-1.559-0.638c-0.602,0-1.125,0.217-1.559,0.638
		c-0.437,0.433-0.661,0.96-0.661,1.565c0,0.62,0.225,1.152,0.661,1.582c0.424,0.418,0.963,0.637,1.559,0.637
		c0.604,0,1.127-0.213,1.559-0.637c0.43-0.428,0.655-0.971,0.655-1.582C128.683,33.391,128.462,32.862,128.027,32.433z"/>
	<path fill="#D7DCE7" d="M157.798,35.932c-0.035,0-0.072,0-0.115-0.006c-0.013-0.006-0.044-0.012-0.058-0.016
		c-0.096-0.016-0.193-0.042-0.278-0.079c-0.056-0.021-0.101-0.046-0.167-0.081l-0.059-0.032c-0.023-0.013-0.037-0.022-0.053-0.032
		c-0.052-0.043-0.1-0.088-0.15-0.15c-0.159-0.178-0.269-0.376-0.316-0.59c-0.008-0.031-0.021-0.057-0.035-0.082v-0.162
		c0-0.005-0.004-0.043-0.006-0.051l0.006-0.396V22.867l0.003-3.953l-0.003-4.182V5.556c0-0.006-0.004-0.048-0.006-0.055l0.006-0.162
		l0.003-0.038c0.015-0.022,0.026-0.045,0.034-0.07c0.046-0.217,0.155-0.412,0.3-0.568c0.046-0.06,0.101-0.121,0.165-0.168
		c0.021-0.021,0.035-0.028,0.07-0.041l0.059-0.033c0.044-0.028,0.09-0.051,0.135-0.069c0.1-0.042,0.197-0.07,0.299-0.087
		l0.054-0.013c0.035-0.007,0.074-0.007,0.13-0.007c0.008,0,0.015,0,0.023,0c0.067,0,0.1,0,0.144,0.007
		c0.009,0.002,0.042,0.013,0.052,0.013c0.099,0.018,0.193,0.043,0.277,0.081c0.059,0.025,0.105,0.051,0.166,0.082
		c0,0,0.111,0.066,0.111,0.069c0.066,0.047,0.115,0.105,0.148,0.148c0.162,0.176,0.271,0.375,0.317,0.585
		c0.008,0.033,0.022,0.061,0.037,0.088v0.153c0,0.007,0.006,0.048,0.006,0.055l-0.006,0.397v9.042l-0.005,3.952l0.005,4.18v11.524
		c0,0.007,0.006,0.048,0.006,0.054l-0.006,0.162l-0.005,0.035c-0.016,0.025-0.028,0.048-0.032,0.076
		c-0.046,0.211-0.151,0.406-0.3,0.564c-0.065,0.082-0.109,0.129-0.166,0.174c-0.015,0.009-0.031,0.018-0.064,0.035l-0.076,0.041
		c-0.045,0.027-0.084,0.049-0.119,0.061c-0.1,0.042-0.196,0.07-0.285,0.084l-0.072,0.016c-0.037,0.006-0.074,0.006-0.111,0.006
		H157.798L157.798,35.932z M151.555,32.74l0.133-0.133c0.436-0.43,0.885-0.873,0.885-1.465c0-0.705-0.574-1.279-1.283-1.279
		c-0.548,0-0.908,0.393-1.254,0.777l-0.037,0.039c-0.08,0.088-0.158,0.175-0.24,0.253c-1.755,1.759-3.906,2.648-6.385,2.648
		c-2.467,0-4.605-0.89-6.36-2.646c-1.757-1.756-2.646-3.901-2.646-6.381c0-2.48,0.889-4.623,2.646-6.373
		c1.759-1.747,3.896-2.633,6.36-2.633c2.479,0,4.63,0.883,6.387,2.63c0.105,0.101,0.202,0.21,0.301,0.322
		c0.353,0.396,0.658,0.736,1.219,0.736c0.705,0,1.28-0.574,1.28-1.28c0-0.375-0.177-0.741-0.501-1.013l-0.056-0.069
		c-0.148-0.162-0.295-0.328-0.446-0.482c-2.252-2.248-5.003-3.387-8.184-3.387c-3.165,0-5.913,1.139-8.164,3.387
		c-2.243,2.249-3.385,4.994-3.385,8.162c0,3.183,1.142,5.936,3.385,8.186c2.248,2.242,4.994,3.384,8.164,3.384
		C146.556,36.124,149.307,34.982,151.555,32.74z M232.555,34.498V5.59c0-0.012,0.006-0.038,0.006-0.051
		c0.006-0.038,0.011-0.072,0.011-0.107c0-0.674-0.546-1.22-1.223-1.22c-0.501,0-0.96,0.318-1.144,0.804
		c-0.046,0.102-0.068,0.217-0.068,0.325c0,0.019-0.006,0.051-0.01,0.07c0.004,0.012,0.01,0.057,0.01,0.069l-0.011,11.032
		c0,0.099-0.063,0.192-0.156,0.228c-0.033,0.012-0.063,0.019-0.091,0.019c-0.068,0-0.135-0.028-0.184-0.082
		c-0.078-0.088-0.16-0.167-0.232-0.25c-2.254-2.251-5.01-3.39-8.189-3.39c-3.171,0-5.916,1.136-8.16,3.387
		c-2.168,2.164-3.268,4.91-3.268,8.178c0,3.255,1.1,5.999,3.266,8.166c2.245,2.245,4.991,3.382,8.162,3.382
		c3.182,0,5.938-1.137,8.181-3.379c0.085-0.09,0.167-0.178,0.251-0.27c0.048-0.049,0.115-0.08,0.186-0.08
		c0.027,0,0.057,0.006,0.087,0.018c0.095,0.036,0.159,0.126,0.159,0.23v1.963c0,0.018,0,0.041-0.002,0.063
		c0,0.008,0.002,0.06,0.002,0.068c0,0.115,0.024,0.227,0.082,0.354c0.18,0.474,0.621,0.779,1.13,0.779
		c0.675,0,1.223-0.546,1.223-1.221c0-0.035-0.005-0.072-0.011-0.11C232.561,34.555,232.555,34.51,232.555,34.498z M230.127,26.457
		c-0.33,1.68-1.164,3.197-2.473,4.506c-1.756,1.756-3.902,2.645-6.381,2.645c-2.48,0-4.626-0.887-6.381-2.633
		c-1.756-1.749-2.646-3.893-2.646-6.372s0.891-4.625,2.646-6.381c1.757-1.756,3.902-2.646,6.381-2.646s4.625,0.89,6.381,2.646
		c1.311,1.312,2.146,2.854,2.482,4.639L230.127,26.457z M182.279,16.421c-2.24-2.248-4.992-3.384-8.176-3.384
		c-3.169,0-5.917,1.136-8.166,3.384c-2.245,2.246-3.381,4.999-3.381,8.182c0,3.171,1.136,5.918,3.381,8.164
		c2.249,2.242,4.997,3.384,8.166,3.384c3.182,0,5.932-1.139,8.176-3.384c2.237-2.249,3.373-4.995,3.373-8.164
		C185.652,21.422,184.517,18.67,182.279,16.421z M180.486,30.975c-1.756,1.746-3.902,2.633-6.381,2.633
		c-2.48,0-4.629-0.887-6.385-2.633c-1.754-1.749-2.643-3.893-2.643-6.372s0.889-4.625,2.646-6.381
		c1.756-1.756,3.904-2.646,6.381-2.646s4.625,0.89,6.381,2.646c1.756,1.759,2.646,3.903,2.646,6.381S182.24,29.226,180.486,30.975z
		 M204.529,33.736c1.537-1.535,2.34-3.5,2.385-5.834V14.919c0-0.021,0.004-0.044,0.006-0.064c0.004-0.02,0.007-0.042,0.007-0.063
		c0-0.673-0.548-1.219-1.221-1.219c-0.674,0-1.222,0.546-1.222,1.219l0.006,0.066l0.004,12.871c0,1.623-0.598,3.027-1.768,4.176
		c-1.218,1.188-3.463,1.83-4.96,1.83c-1.843,0-3.826-0.74-4.936-1.84c-1.185-1.143-1.785-2.543-1.785-4.166V14.85
		c0-0.015,0.002-0.065,0.004-0.081c0-0.005-0.006-0.057-0.006-0.063c-0.048-0.637-0.583-1.134-1.212-1.134
		c-0.672,0-1.219,0.546-1.219,1.219c0,0.031,0.004,0.064,0.008,0.092c0.002,0.014,0.009,0.063,0.009,0.075v12.929
		c0.037,2.349,0.841,4.313,2.381,5.849c1.487,1.488,4.084,2.414,6.774,2.414C200.373,36.15,203.084,35.184,204.529,33.736z"/>
	<path fill="#FFFFFF" d="M83.795,8.151h0.385v0.384v13.566c0,4.033-0.294,6.408-1.962,8.99c-0.967,1.527-3.84,5.076-9.621,5.076
		c-3.352,0-7.686-1.32-9.793-5.025c-2.021-3.462-2.021-5.801-2.021-9.041V8.535V8.151h0.384h2.837h0.385v0.384v13.948
		c0,3.754,0.698,5.429,1.305,6.472c0.648,1.118,2.604,3.725,6.752,3.725c3.031,0,5.685-1.416,6.769-3.617
		c1.138-2.191,1.365-4.142,1.365-6.579V8.535V8.151h0.385H83.795z M109.117,11.469h0.09c3.518,0,6.061,1.49,8.283,3.102l1.12,0.854
		l0.62,0.471v-0.778v-3.099v-0.165l-0.111-0.112c-2.277-2.25-5.165-3.54-8.582-3.825c-0.424-0.036-0.89-0.058-1.42-0.061h-0.002
		h-0.003c-0.528,0.003-0.993,0.024-1.419,0.061c-3.391,0.288-6.262,1.557-8.529,3.774l-0.1,0.1l-0.004,0.048l-0.047,0.001
		l-0.105,0.107c-2.535,2.6-3.818,5.971-3.818,10.018c0,4.116,1.325,7.53,3.94,10.142c2.339,2.327,5.236,3.623,8.669,3.911
		c0.485,0.04,0.948,0.058,1.418,0.058c0.473,0,0.934-0.018,1.42-0.058c3.418-0.288,6.306-1.575,8.584-3.826l0.113-0.111v-0.163
		l-0.002-3.102v-0.778l-0.619,0.47l-1.138,0.871c-2.214,1.602-4.754,3.09-8.279,3.09l-0.063-0.003
		c-3.039-0.019-5.552-1.003-7.487-2.925c-1.954-1.957-2.944-4.506-2.944-7.573c0-3.074,0.994-5.621,2.949-7.579
		C103.581,12.471,106.098,11.489,109.117,11.469z M36.082,29.191l-2.651,2.652l-0.215,0.203c-6.579-6.578-4.84-18.743,3.566-22.872
		c3.781-1.855,8.312-1.956,12.207-0.383c1.864,0.752,3.574,1.889,4.957,3.349c1.563,1.649,2.111,3.455,3.09,5.415
		c0.404,1.408,0.606,2.875,0.606,4.34c0,0.733-0.051,1.466-0.152,2.192c-0.094,0.678-0.458,1.49-0.458,2.156
		c-0.03,0.098-0.063,0.191-0.097,0.288c-0.099,0.313-1.097,3.108-1.376,3.013l-0.057-0.046H55.48
		c-1.306-0.458-3.081-0.472-4.157-0.867l0.105-0.126c0.277-0.317,0.499-0.679,0.713-1.039c-0.001,0-0.001,0-0.002,0
		c-0.002-0.003-0.005-0.003-0.007-0.003c2.167-3.688,2.045-9.01-0.822-12.301l-0.068-0.085c-3.979-4.605-12.06-4.581-15.872,0.236
		c-0.087,0.109-0.175,0.217-0.258,0.333l-0.051,0.071c-0.175,0.247-0.453,0.714-0.561,0.965l-0.136,0.252
		c-0.54,0.993-0.821,2.104-0.996,3.211l-0.011,0.073c-0.052,0.382-0.089,0.773-0.104,1.164l-0.004,0.125l-0.006,0.193v0.15v0.088
		v0.152l0.006,0.193l0.004,0.124c0.017,0.392,0.052,0.78,0.104,1.163l0.011,0.072c0.004,0.029,0.012,0.055,0.016,0.083
		c0.188,1.19,0.535,2.324,1.117,3.384l-0.019,0.02c0.189,0.352,0.397,0.691,0.631,1.019c0.083,0.113,0.17,0.223,0.259,0.331
		l0.081,0.1C35.647,28.799,35.857,29.003,36.082,29.191z M59.046,34.33c-0.353-0.28-0.707-0.529-1.081-0.766l-0.005-0.004
		l-0.065-0.037c-0.249-0.162-0.532-0.32-0.856-0.486l-0.16-0.089c-0.583-0.296-1.205-0.517-1.794-0.782h-0.023
		c-2.801-0.978-5.742-0.866-8.633-0.422c-0.029,0.003-0.061,0.01-0.091,0.012c-2.539,0.666-5.08,0.385-7.466-0.605
		c-0.159-0.076-0.309-0.163-0.459-0.25l-1.502,1.502h0.002h-0.002l-1.477,1.477c0.383,0.294,0.835,0.505,1.265,0.721
		c0.035,0.021,0.088,0.049,0.145,0.078c2.037,0.977,4.295,1.459,6.552,1.459h0.003H43.4c1.228-0.008,2.441-0.217,3.654-0.395
		c3.339-0.529,6.727-0.503,9.596,1.51l0.016-0.016l0.047,0.033l0.211-0.212l2.151-2.151l0.306-0.307L59.046,34.33z M88.127,8.124
		v0.385V35.62v0.388h0.384h0.335h0.022l0.056-0.006l2.498,0.004h0.384v-0.389V8.507V8.123L88.127,8.124L88.127,8.124z"/>
</g>
</svg>
